<?xml version="1.0" encoding="us-ascii" standalone="no"?><svg xmlns="http://www.w3.org/2000/svg" xmlns:xlink="http://www.w3.org/1999/xlink" contentStyleType="text/css" height="529px" preserveAspectRatio="none" style="width:952px;height:529px;background:#FFFFFF;" version="1.1" viewBox="0 0 952 529" width="952px" zoomAndPan="magnify"><defs/><g><text fill="#000000" font-family="sans-serif" font-size="14" font-weight="bold" lengthAdjust="spacing" textLength="172" x="388.5" y="33.5352">Quality of Service (QoS)</text><rect fill="#F1F1F1" height="36.4883" rx="12.5" ry="12.5" style="stroke:#181818;stroke-width:1.5;" width="86" x="552" y="254.6855"/><text fill="#000000" font-family="sans-serif" font-size="14" lengthAdjust="spacing" textLength="66" x="562" y="278.2207">QoS tools</text><text fill="#000000" font-family="sans-serif" font-size="14" lengthAdjust="spacing" textLength="107" x="691" y="278.2207">help to manage</text><rect fill="#F1F1F1" height="36.4883" rx="12.5" ry="12.5" style="stroke:#181818;stroke-width:1.5;" width="92" x="848" y="169.9531"/><text fill="#000000" font-family="sans-serif" font-size="14" lengthAdjust="spacing" textLength="72" x="858" y="193.4883">Bandwidth</text><path d="M798,272.9297 L808,272.9297 C823,272.9297 823,188.1973 838,188.1973 L848,188.1973 " fill="none" style="stroke:#181818;stroke-width:1.0;"/><rect fill="#F1F1F1" height="36.4883" rx="12.5" ry="12.5" style="stroke:#181818;stroke-width:1.5;" width="52" x="848" y="226.4414"/><text fill="#000000" font-family="sans-serif" font-size="14" lengthAdjust="spacing" textLength="32" x="858" y="249.9766">Jitter</text><path d="M798,272.9297 L808,272.9297 C823,272.9297 823,244.6855 838,244.6855 L848,244.6855 " fill="none" style="stroke:#181818;stroke-width:1.0;"/><rect fill="#F1F1F1" height="36.4883" rx="12.5" ry="12.5" style="stroke:#181818;stroke-width:1.5;" width="57" x="848" y="282.9297"/><text fill="#000000" font-family="sans-serif" font-size="14" lengthAdjust="spacing" textLength="37" x="858" y="306.4648">Delay</text><path d="M798,272.9297 L808,272.9297 C823,272.9297 823,301.1738 838,301.1738 L848,301.1738 " fill="none" style="stroke:#181818;stroke-width:1.0;"/><rect fill="#F1F1F1" height="36.4883" rx="12.5" ry="12.5" style="stroke:#181818;stroke-width:1.5;" width="50" x="848" y="339.418"/><text fill="#000000" font-family="sans-serif" font-size="14" lengthAdjust="spacing" textLength="30" x="858" y="362.9531">Loss</text><path d="M798,272.9297 L808,272.9297 C823,272.9297 823,357.6621 838,357.6621 L848,357.6621 " fill="none" style="stroke:#181818;stroke-width:1.0;"/><path d="M638,272.9297 L648,272.9297 C663,272.9297 663,272.9297 678,272.9297 L688,272.9297 " fill="none" style="stroke:#181818;stroke-width:1.0;"/><rect fill="#F1F1F1" height="36.4883" rx="12.5" ry="12.5" style="stroke:#181818;stroke-width:1.5;" width="274" x="228" y="57.4883"/><text fill="#000000" font-family="sans-serif" font-size="14" lengthAdjust="spacing" textLength="254" x="238" y="81.0234">Forwarding per-hop behaviour (PHB)</text><path d="M552,272.9297 L542,272.9297 C527,272.9297 527,75.7324 512,75.7324 L502,75.7324 " fill="none" style="stroke:#181818;stroke-width:1.0;"/><text fill="#000000" font-family="sans-serif" font-size="14" lengthAdjust="spacing" textLength="88" x="411" y="118.5117">classification</text><text fill="#000000" font-family="sans-serif" font-size="14" lengthAdjust="spacing" textLength="37" x="321" y="118.5117">NBAR</text><path d="M411,113.2207 L401,113.2207 C386,113.2207 386,113.2207 371,113.2207 L361,113.2207 " fill="none" style="stroke:#181818;stroke-width:1.0;"/><path d="M552,272.9297 L542,272.9297 C527,272.9297 527,113.2207 512,113.2207 L502,113.2207 " fill="none" style="stroke:#181818;stroke-width:1.0;"/><text fill="#000000" font-family="sans-serif" font-size="14" lengthAdjust="spacing" textLength="57" x="442" y="165.2441">marking</text><text fill="#000000" font-family="sans-serif" font-size="14" lengthAdjust="spacing" textLength="54" x="335" y="137">IPP field</text><text fill="#000000" font-family="sans-serif" font-size="14" lengthAdjust="spacing" textLength="180" x="102" y="137">IP Priority (3-bits 8-levels)</text><path d="M335,131.709 L325,131.709 C310,131.709 310,131.709 295,131.709 L285,131.709 " fill="none" style="stroke:#181818;stroke-width:1.0;"/><path d="M442,159.9531 L432,159.9531 C417,159.9531 417,131.709 402,131.709 L392,131.709 " fill="none" style="stroke:#181818;stroke-width:1.0;"/><rect fill="#F1F1F1" height="36.4883" rx="12.5" ry="12.5" style="stroke:#181818;stroke-width:1.5;" width="90" x="302" y="150.9531"/><text fill="#000000" font-family="sans-serif" font-size="14" lengthAdjust="spacing" textLength="70" x="312" y="174.4883">DSCP field</text><text fill="#000000" font-family="sans-serif" font-size="14" lengthAdjust="spacing" textLength="239" x="10" y="174.4883">Differenticated Services Code Point</text><path d="M302,169.1973 L292,169.1973 C277,169.1973 277,169.1973 262,169.1973 L252,169.1973 " fill="none" style="stroke:#181818;stroke-width:1.0;"/><path d="M442,159.9531 L432,159.9531 C417,159.9531 417,169.1973 402,169.1973 L392,169.1973 " fill="none" style="stroke:#181818;stroke-width:1.0;"/><path d="M552,272.9297 L542,272.9297 C527,272.9297 527,159.9531 512,159.9531 L502,159.9531 " fill="none" style="stroke:#181818;stroke-width:1.0;"/><text fill="#000000" font-family="sans-serif" font-size="14" lengthAdjust="spacing" textLength="57" x="442" y="287.4648">queuing</text><rect fill="#F1F1F1" height="36.4883" rx="12.5" ry="12.5" style="stroke:#181818;stroke-width:1.5;" width="69" x="323" y="207.4414"/><text fill="#000000" font-family="sans-serif" font-size="14" lengthAdjust="spacing" textLength="49" x="333" y="230.9766">CBWFQ</text><text fill="#000000" font-family="sans-serif" font-size="14" lengthAdjust="spacing" textLength="245" x="21" y="230.9766">Class-Based Weighted Fair Queuing</text><path d="M323,225.6855 L313,225.6855 C298,225.6855 298,225.6855 283,225.6855 L273,225.6855 " fill="none" style="stroke:#181818;stroke-width:1.0;"/><path d="M442,282.1738 L432,282.1738 C417,282.1738 417,225.6855 402,225.6855 L392,225.6855 " fill="none" style="stroke:#181818;stroke-width:1.0;"/><rect fill="#F1F1F1" height="36.4883" rx="12.5" ry="12.5" style="stroke:#181818;stroke-width:1.5;" width="181" x="211" y="263.9297"/><text fill="#000000" font-family="sans-serif" font-size="14" lengthAdjust="spacing" textLength="161" x="221" y="287.4648">Round-robin scheduler</text><path d="M442,282.1738 L432,282.1738 C417,282.1738 417,282.1738 402,282.1738 L392,282.1738 " fill="none" style="stroke:#181818;stroke-width:1.0;"/><rect fill="#F1F1F1" height="36.4883" rx="12.5" ry="12.5" style="stroke:#181818;stroke-width:1.5;" width="151" x="241" y="320.418"/><text fill="#000000" font-family="sans-serif" font-size="14" lengthAdjust="spacing" textLength="131" x="251" y="343.9531">Low Latency Queue</text><path d="M442,282.1738 L432,282.1738 C417,282.1738 417,338.6621 402,338.6621 L392,338.6621 " fill="none" style="stroke:#181818;stroke-width:1.0;"/><path d="M552,272.9297 L542,272.9297 C527,272.9297 527,282.1738 512,282.1738 L502,282.1738 " fill="none" style="stroke:#181818;stroke-width:1.0;"/><text fill="#000000" font-family="sans-serif" font-size="14" lengthAdjust="spacing" textLength="76" x="423" y="381.4414">congestion</text><path d="M552,272.9297 L542,272.9297 C527,272.9297 527,376.1504 512,376.1504 L502,376.1504 " fill="none" style="stroke:#181818;stroke-width:1.0;"/><rect fill="#F1F1F1" height="36.4883" rx="12.5" ry="12.5" style="stroke:#181818;stroke-width:1.5;" width="75" x="427" y="395.3945"/><text fill="#000000" font-family="sans-serif" font-size="14" lengthAdjust="spacing" textLength="55" x="437" y="418.9297">policing</text><text fill="#000000" font-family="sans-serif" font-size="14" lengthAdjust="spacing" textLength="214" x="160" y="409.6855">Discards packets &gt; BW limit CIR</text><path d="M427,413.6387 L417,413.6387 C402,413.6387 402,404.3945 387,404.3945 L377,404.3945 " fill="none" style="stroke:#181818;stroke-width:1.0;"/><text fill="#000000" font-family="sans-serif" font-size="14" lengthAdjust="spacing" textLength="70" x="304" y="428.1738">WAN edge</text><text fill="#000000" font-family="sans-serif" font-size="14" lengthAdjust="spacing" textLength="43" x="208" y="428.1738">SP CIR</text><path d="M304,422.8828 L294,422.8828 C279,422.8828 279,422.8828 264,422.8828 L254,422.8828 " fill="none" style="stroke:#181818;stroke-width:1.0;"/><path d="M427,413.6387 L417,413.6387 C402,413.6387 402,422.8828 387,422.8828 L377,422.8828 " fill="none" style="stroke:#181818;stroke-width:1.0;"/><path d="M552,272.9297 L542,272.9297 C527,272.9297 527,413.6387 512,413.6387 L502,413.6387 " fill="none" style="stroke:#181818;stroke-width:1.0;"/><rect fill="#F1F1F1" height="36.4883" rx="12.5" ry="12.5" style="stroke:#181818;stroke-width:1.5;" width="75" x="427" y="451.8828"/><text fill="#000000" font-family="sans-serif" font-size="14" lengthAdjust="spacing" textLength="55" x="437" y="475.418">shaping</text><path d="M552,272.9297 L542,272.9297 C527,272.9297 527,470.127 512,470.127 L502,470.127 " fill="none" style="stroke:#181818;stroke-width:1.0;"/><text fill="#000000" font-family="sans-serif" font-size="14" lengthAdjust="spacing" textLength="111" x="419" y="512.9063">Terms Mindmap</text><!--SRC=[LL9DSzem4BthL-mHmZW39EcaFdGIcq93JMe-4euPOQ_nJcJ9bMGp_FjAnhJJawIt-_RZwJqPoxMjIEOLhndBU6r9ITYXhWoiUjYI5GZhXWkoPr05R56tb24CrcexP6m4xWIhb32C1G7CbJvndPCyGeqwA5KD1onvIwhHC4X_H4Cs6dr0YQ9sBAYuv4Tqq0WYBlCJvRRiNako5dLtdQ7Wv-wMAEEw22mi6CgHiPkR3yW4DuOAohWVtq4EUusUDrsmulhJpN91Nz8K2aAH-sVtXbIJqdwpmLrm86lWCH3OeZ13dmEpRVm_PKP5WHgbzUqmlwfX85OvGgf8sijKlnji-iOGH_lvkYyG-sc3Y1j7tYCTIrzbpaaxZJi6T9IDQcGUQ7KW2IOhCM-4KyD74dM2nFMMsRcZu4K49OzeUW6WLeAolslFo6JkImpKFFj4j-CtYFOWg28BySlcahH_VWNCZzYFkKtx49YIrxuKi2TqbhYw9HLSshTL0YrgusqpkPsEf_UtTuDTsS0S3p1vWCdNy7uSZXzWiTg13m_PO94cxHICiuCpKKx6QZeqVl0XM_AMmwPnubOOmgyQvNBsymh0TzcILh9ouhFb- -fVmfVx87Ah-Az03UyhDiE2Dy8wHgQy4qDusys3HvPmUMoStK90oMAdiDNd41RH7m00]--></g></svg>